<?xml version="1.0" encoding="UTF-8" standalone="no"?><!DOCTYPE svg PUBLIC "-//W3C//DTD SVG 1.1//EN" "http://www.w3.org/Graphics/SVG/1.1/DTD/svg11.dtd"><svg width="100%" height="100%" viewBox="0 0 192 24" version="1.1" xmlns="http://www.w3.org/2000/svg" xmlns:xlink="http://www.w3.org/1999/xlink" xml:space="preserve" xmlns:serif="http://www.serif.com/" style="fill-rule:evenodd;clip-rule:evenodd;stroke-linejoin:round;stroke-miterlimit:2;"><path d="M9.551,15.27c0.187,-0.196 0.326,-0.454 0.416,-0.774c0.09,-0.32 0.135,-0.711 0.135,-1.172l-0,-6.14l-0.844,0.457l-0,-0.481c0.5,-0.25 1.008,-0.537 1.523,-0.861c0.516,-0.324 1.047,-0.686 1.594,-1.084l0,6.281c0,0.938 -0.203,1.68 -0.609,2.227c-0.407,0.547 -1.145,1.062 -2.215,1.547Zm-5.309,-10.418c0.156,-1.227 0.547,-2.114 1.172,-2.661c0.625,-0.546 1.578,-0.82 2.859,-0.82c0.836,0 2.012,0.104 3.528,0.311c1.515,0.207 2.613,0.31 3.293,0.31c0.562,0 1.031,-0.029 1.406,-0.088c0.375,-0.058 0.715,-0.154 1.02,-0.287c-0.243,0.555 -0.565,1.037 -0.967,1.447c-0.403,0.411 -0.881,0.733 -1.436,0.967l0,10.664c0.242,-0.234 0.492,-0.5 0.75,-0.797c0.258,-0.296 0.512,-0.617 0.762,-0.96c-0.344,1.835 -1.086,3.291 -2.227,4.365c-1.14,1.074 -2.504,1.611 -4.09,1.611c-1.75,0 -3.187,-0.592 -4.312,-1.775c-1.125,-1.184 -1.688,-2.709 -1.688,-4.576c0,-1.602 0.333,-3.069 0.997,-4.401c0.664,-1.332 1.605,-2.428 2.824,-3.287c-0.633,0.992 -1.088,1.938 -1.365,2.836c-0.278,0.898 -0.416,1.84 -0.416,2.824c-0,1.742 0.402,3.139 1.207,4.19c0.804,1.05 1.859,1.576 3.164,1.576c0.632,-0 1.293,-0.115 1.98,-0.346c0.688,-0.23 1.371,-0.564 2.051,-1.002l-0,-10.816c-0.328,0.086 -0.629,0.15 -0.902,0.193c-0.274,0.043 -0.524,0.065 -0.75,0.065c-0.391,-0 -1.319,-0.084 -2.784,-0.252c-1.464,-0.168 -2.72,-0.252 -3.767,-0.252c-0.61,-0 -1.098,0.076 -1.465,0.228c-0.367,0.152 -0.649,0.397 -0.844,0.733Z" style="fill-rule:nonzero;"/><path d="M17.695,17.473c0.039,-0.375 0.168,-0.694 0.387,-0.955c0.219,-0.262 0.535,-0.487 0.949,-0.674l0,-10.746c0,-0.618 -0.052,-1.069 -0.158,-1.354c-0.105,-0.285 -0.287,-0.557 -0.545,-0.814c0.617,-0.188 1.197,-0.434 1.74,-0.739c0.543,-0.304 1.1,-0.699 1.67,-1.183c-0.234,0.656 -0.404,1.347 -0.509,2.074c-0.106,0.727 -0.159,1.66 -0.159,2.801l0,3.597l3.551,-2.953c0.289,0.508 0.586,0.883 0.891,1.125c0.304,0.243 0.633,0.364 0.984,0.364c0.149,-0 0.293,-0.024 0.434,-0.071c0.14,-0.047 0.297,-0.125 0.468,-0.234c-0.039,0.344 -0.136,0.643 -0.293,0.896c-0.156,0.254 -0.39,0.498 -0.703,0.733l0,6.164c0,0.461 0.034,0.84 0.1,1.137c0.066,0.296 0.174,0.589 0.322,0.879c-0.234,-0.063 -0.455,-0.11 -0.662,-0.141c-0.207,-0.031 -0.408,-0.047 -0.603,-0.047c-0.414,0 -0.774,0.105 -1.079,0.316c-0.304,0.211 -0.457,0.45 -0.457,0.715c0,0.227 0.233,0.612 0.698,1.155c0.465,0.543 0.697,1.072 0.697,1.587c-0,0.524 -0.164,0.961 -0.492,1.313c-0.328,0.352 -0.746,0.543 -1.254,0.574c0.226,-0.195 0.398,-0.431 0.515,-0.709c0.118,-0.277 0.176,-0.599 0.176,-0.967c0,-0.515 -0.113,-1.095 -0.34,-1.74c-0.226,-0.644 -0.339,-1.025 -0.339,-1.142c-0,-0.227 0.107,-0.493 0.322,-0.797c0.215,-0.305 0.322,-0.614 0.322,-0.926l0,-7.031c-0.242,-0.063 -0.473,-0.178 -0.691,-0.346c-0.219,-0.168 -0.481,-0.447 -0.785,-0.838l-1.782,1.465l0,5.883c0.313,0.133 0.614,0.289 0.903,0.468c0.289,0.18 0.562,0.383 0.82,0.61c-0.523,0.25 -0.988,0.517 -1.395,0.803c-0.406,0.285 -0.765,0.595 -1.078,0.931c-0.218,-0.406 -0.515,-0.732 -0.89,-0.978c-0.375,-0.246 -0.75,-0.369 -1.125,-0.369c-0.063,-0 -0.141,0.011 -0.235,0.035c-0.093,0.023 -0.218,0.066 -0.375,0.129Z" style="fill-rule:nonzero;"/><path d="M32.895,8.074l-0.715,0.188l-0,5.402l2.859,-1.922l-2.144,-3.668Zm-4.055,9.645c-0,-0.43 0.103,-0.797 0.31,-1.102c0.207,-0.305 0.514,-0.539 0.92,-0.703l0,-5.707c0,-0.437 -0.054,-0.816 -0.164,-1.137c-0.109,-0.32 -0.281,-0.613 -0.515,-0.879l0.82,0c0.875,0 1.748,-0.158 2.619,-0.474c0.871,-0.317 1.557,-0.721 2.057,-1.213c0.234,0.766 0.554,1.504 0.961,2.215c0.406,0.711 0.879,1.359 1.418,1.945l-5.086,3.457l-0,1.57c0.632,0.079 1.209,0.207 1.728,0.387c0.52,0.18 0.967,0.406 1.342,0.68l0.668,-0.528l0.223,0.282l-2.614,2.308c-0.492,-0.429 -1.037,-0.761 -1.634,-0.996c-0.598,-0.234 -1.206,-0.351 -1.823,-0.351c-0.218,-0 -0.427,0.019 -0.627,0.058c-0.199,0.039 -0.4,0.102 -0.603,0.188Z" style="fill-rule:nonzero;"/><path d="M55.242,15.246l0,-6.937c-0.265,0.125 -0.553,0.22 -0.861,0.287c-0.309,0.066 -0.631,0.099 -0.967,0.099c-0.281,0 -0.529,-0.019 -0.744,-0.058c-0.215,-0.039 -0.42,-0.098 -0.615,-0.176c0.031,0.094 0.082,0.234 0.152,0.422c1.305,3.539 2.316,5.66 3.035,6.363Zm-8.695,-3.023c0.414,-0.18 0.807,-0.313 1.178,-0.399c0.371,-0.086 0.724,-0.129 1.06,-0.129c0.313,0 0.654,0.039 1.026,0.117c0.371,0.079 0.787,0.196 1.248,0.352c-0.086,-0.219 -0.211,-0.535 -0.375,-0.949c-1.743,-4.422 -3.122,-6.871 -4.137,-7.348l-0,8.356Zm-3.527,6.668c0.265,-0.93 0.656,-1.657 1.171,-2.18c0.516,-0.524 1.192,-0.867 2.028,-1.031l-0,-4.442c-0.024,-0.008 -0.047,-0.015 -0.071,-0.023c-0.179,-0.047 -0.308,-0.07 -0.386,-0.07c-0.282,-0 -0.508,0.08 -0.68,0.24c-0.172,0.16 -0.258,0.373 -0.258,0.638c0,0.008 -0.008,0.018 -0.023,0.03c-0.016,0.011 -0.024,0.021 -0.024,0.029c-0.164,-0.187 -0.281,-0.395 -0.351,-0.621c-0.071,-0.227 -0.106,-0.5 -0.106,-0.82c0,-0.539 0.121,-0.967 0.364,-1.284c0.242,-0.316 0.562,-0.474 0.961,-0.474c0.062,-0 0.134,0.004 0.216,0.012c0.082,0.007 0.198,0.019 0.346,0.035l0.012,-5.157c-0.094,-0.031 -0.182,-0.054 -0.264,-0.07c-0.082,-0.015 -0.17,-0.023 -0.264,-0.023c-0.507,-0 -0.955,0.193 -1.341,0.58c-0.387,0.386 -0.58,0.857 -0.58,1.412c-0.11,-0.25 -0.19,-0.49 -0.241,-0.721c-0.05,-0.23 -0.076,-0.455 -0.076,-0.674c0,-0.867 0.277,-1.576 0.832,-2.127c0.555,-0.55 1.27,-0.826 2.145,-0.826c1.015,0 1.925,0.483 2.73,1.447c0.805,0.965 1.719,2.725 2.742,5.28c0.297,0.094 0.582,0.164 0.856,0.211c0.273,0.047 0.531,0.07 0.773,0.07c0.305,0 0.598,-0.037 0.879,-0.111c0.281,-0.075 0.559,-0.19 0.832,-0.346l0,-3.363l-0.094,-0c-0.414,-0 -0.822,-0.065 -1.224,-0.194c-0.403,-0.129 -0.838,-0.334 -1.307,-0.615l-0.597,0.504l-0.188,-0.223c0.57,-0.507 1.061,-0.986 1.471,-1.435c0.41,-0.449 0.72,-0.85 0.931,-1.201c0.391,0.304 0.746,0.521 1.067,0.65c0.32,0.129 0.644,0.193 0.972,0.193c0.344,0 0.663,-0.06 0.956,-0.181c0.292,-0.121 0.572,-0.311 0.837,-0.569c0,0.688 -0.224,1.307 -0.673,1.858c-0.45,0.551 -1.057,0.947 -1.823,1.189l0,14.543c-0.625,-0.078 -1.273,-0.607 -1.945,-1.588c-0.672,-0.98 -1.469,-2.576 -2.391,-4.787c-0.39,-0.195 -0.779,-0.336 -1.166,-0.422c-0.386,-0.086 -0.791,-0.129 -1.213,-0.129c-0.46,0 -0.878,0.043 -1.253,0.129c-0.375,0.086 -0.727,0.219 -1.055,0.399l-0,3l0.527,-0c0.508,-0 1.028,0.086 1.559,0.258c0.531,0.172 0.996,0.406 1.394,0.703l0.317,-0.34l0.258,0.211c-0.5,0.531 -0.914,1.004 -1.243,1.418c-0.328,0.414 -0.593,0.797 -0.796,1.148c-0.43,-0.343 -0.877,-0.605 -1.342,-0.785c-0.465,-0.18 -0.936,-0.269 -1.412,-0.269c-0.43,-0 -0.871,0.074 -1.325,0.222c-0.453,0.149 -0.941,0.379 -1.464,0.692Z" style="fill-rule:nonzero;"/><path d="M61.863,8.074l-0.715,0.188l0,5.402l2.86,-1.922l-2.145,-3.668Zm-4.054,9.645c-0,-0.43 0.103,-0.797 0.31,-1.102c0.207,-0.305 0.514,-0.539 0.92,-0.703l0,-5.707c0,-0.437 -0.055,-0.816 -0.164,-1.137c-0.109,-0.32 -0.281,-0.613 -0.516,-0.879l0.821,0c0.875,0 1.748,-0.158 2.619,-0.474c0.871,-0.317 1.556,-0.721 2.056,-1.213c0.235,0.766 0.555,1.504 0.961,2.215c0.407,0.711 0.879,1.359 1.418,1.945l-5.086,3.457l0,1.57c0.633,0.079 1.209,0.207 1.729,0.387c0.519,0.18 0.967,0.406 1.342,0.68l0.668,-0.528l0.222,0.282l-2.613,2.308c-0.492,-0.429 -1.037,-0.761 -1.635,-0.996c-0.597,-0.234 -1.205,-0.351 -1.822,-0.351c-0.219,-0 -0.428,0.019 -0.627,0.058c-0.199,0.039 -0.4,0.102 -0.603,0.188Z" style="fill-rule:nonzero;"/><path d="M74.848,18.457c-0.547,-0.273 -0.948,-0.598 -1.202,-0.973c-0.253,-0.375 -0.38,-0.832 -0.38,-1.371l-0,-0.246l-2.907,2.66c-0.218,-0.437 -0.527,-0.798 -0.925,-1.084c-0.399,-0.285 -0.793,-0.427 -1.184,-0.427c-0.086,-0 -0.184,0.011 -0.293,0.035c-0.109,0.023 -0.262,0.07 -0.457,0.14c0.086,-0.281 0.211,-0.521 0.375,-0.72c0.164,-0.2 0.383,-0.377 0.656,-0.534l0,-5.085c0,-0.75 -0.08,-1.331 -0.24,-1.741c-0.16,-0.41 -0.408,-0.662 -0.744,-0.756l-0.785,0.551l-0.164,-0.316l0.093,-0.059c1.282,-0.851 2.207,-1.543 2.778,-2.074c0.414,0.313 0.715,0.748 0.902,1.307c0.188,0.558 0.281,1.306 0.281,2.244l0,5.554c0.164,0.094 0.34,0.227 0.528,0.399c0.187,0.172 0.418,0.422 0.691,0.75l1.371,-1.207l0,-4.652c0,-0.735 -0.084,-1.311 -0.252,-1.729c-0.168,-0.418 -0.42,-0.674 -0.756,-0.768l-0.797,0.551l-0.14,-0.304l0.094,-0.071c1.281,-0.851 2.211,-1.543 2.789,-2.074c0.406,0.313 0.703,0.748 0.89,1.307c0.188,0.558 0.282,1.306 0.282,2.244l-0,4.418c-0,0.859 0.093,1.437 0.281,1.734c0.187,0.297 0.527,0.527 1.019,0.692c0.227,-0.079 0.459,-0.153 0.698,-0.223c0.238,-0.07 0.474,-0.141 0.709,-0.211l-0,-7.031c-0.196,-0.133 -0.372,-0.28 -0.528,-0.44c-0.156,-0.16 -0.301,-0.342 -0.433,-0.545l-0.762,0.575l-0.164,-0.329c0.664,-0.484 1.213,-0.892 1.646,-1.224c0.434,-0.332 0.819,-0.639 1.155,-0.92c0.211,0.57 0.476,1.017 0.797,1.342c0.32,0.324 0.656,0.486 1.007,0.486c0.078,0 0.162,-0.012 0.252,-0.035c0.09,-0.024 0.205,-0.067 0.346,-0.129c-0.133,0.328 -0.291,0.596 -0.475,0.803c-0.183,0.207 -0.423,0.384 -0.72,0.533l-0,5.168c-0,0.398 0.039,0.771 0.117,1.119c0.078,0.348 0.195,0.674 0.351,0.979c-0.273,-0.032 -0.513,-0.057 -0.72,-0.077c-0.207,-0.019 -0.397,-0.029 -0.569,-0.029c-0.797,0 -1.586,0.156 -2.367,0.469c-0.781,0.312 -1.496,0.754 -2.144,1.324Z" style="fill-rule:nonzero;"/><path d="M94.008,7.945c0.242,0.164 0.478,0.282 0.709,0.352c0.23,0.07 0.474,0.105 0.732,0.105c0.219,0 0.434,-0.035 0.645,-0.105c0.211,-0.07 0.418,-0.18 0.621,-0.328l-0,-3.188c-0.313,-0.117 -0.58,-0.263 -0.803,-0.439c-0.223,-0.176 -0.435,-0.405 -0.639,-0.686l-1.265,1.055l-0,3.234Zm-0,4.782c0.273,-0.094 0.517,-0.166 0.732,-0.217c0.215,-0.051 0.401,-0.076 0.557,-0.076c0.219,-0 0.447,0.027 0.685,0.082c0.239,0.054 0.483,0.132 0.733,0.234l-0,-4.371c-0.258,0.125 -0.492,0.217 -0.703,0.275c-0.211,0.059 -0.407,0.088 -0.586,0.088c-0.172,0 -0.36,-0.027 -0.563,-0.082c-0.203,-0.055 -0.488,-0.164 -0.855,-0.328l-0,4.395Zm-0,5.273c0.101,0.023 0.197,0.043 0.287,0.059c0.09,0.015 0.17,0.023 0.24,0.023c0.711,0 1.252,-0.197 1.623,-0.592c0.371,-0.394 0.557,-0.967 0.557,-1.717l-0,-2.589c-0.25,-0.141 -0.49,-0.245 -0.721,-0.311c-0.23,-0.066 -0.463,-0.1 -0.697,-0.1c-0.234,0 -0.459,0.034 -0.674,0.1c-0.215,0.066 -0.42,0.17 -0.615,0.311l-0,4.816Zm-0.34,-0.117l-0,-12.914l-1.348,0.89l0,8.743c0,1.046 0.102,1.793 0.305,2.238c0.203,0.445 0.551,0.793 1.043,1.043Zm2.285,4.922l0.07,-0.305c0.11,0.039 0.211,0.068 0.305,0.088c0.094,0.019 0.184,0.029 0.27,0.029c0.359,0 0.673,-0.121 0.943,-0.363c0.27,-0.242 0.404,-0.516 0.404,-0.82c0,-0.188 -0.072,-0.342 -0.216,-0.463c-0.145,-0.121 -0.338,-0.182 -0.581,-0.182c-0.195,0 -0.468,0.088 -0.82,0.264c-0.351,0.176 -0.703,0.408 -1.055,0.697l-0.07,0.059c-0.945,0.773 -1.738,1.16 -2.379,1.16c-0.625,-0 -1.136,-0.205 -1.535,-0.615c-0.398,-0.411 -0.598,-0.932 -0.598,-1.565c0,-0.547 0.182,-0.996 0.545,-1.348c0.364,-0.351 0.983,-0.671 1.858,-0.961c-1.149,-0.164 -1.936,-0.47 -2.362,-0.919c-0.425,-0.45 -0.638,-1.389 -0.638,-2.819l-0,-4.242c-0.11,-0.023 -0.205,-0.039 -0.287,-0.047c-0.082,-0.008 -0.162,-0.012 -0.241,-0.012c-0.336,0 -0.601,0.084 -0.796,0.252c-0.196,0.168 -0.348,0.444 -0.457,0.827c-0.118,-0.258 -0.202,-0.5 -0.252,-0.727c-0.051,-0.227 -0.077,-0.453 -0.077,-0.68c0,-0.64 0.139,-1.125 0.416,-1.453c0.278,-0.328 0.69,-0.492 1.237,-0.492l0.457,0.012l-0,-2.778c-0,-0.578 -0.092,-1.013 -0.276,-1.306c-0.183,-0.293 -0.459,-0.44 -0.826,-0.44c-0.289,0 -0.539,0.121 -0.75,0.364c-0.211,0.242 -0.363,0.585 -0.457,1.031c-0.062,-0.281 -0.105,-0.498 -0.129,-0.651c-0.023,-0.152 -0.035,-0.291 -0.035,-0.416c0,-0.734 0.234,-1.357 0.703,-1.869c0.469,-0.511 1.059,-0.767 1.77,-0.767c0.765,-0 1.328,0.298 1.687,0.896c0.36,0.598 0.539,1.533 0.539,2.807l0,0.375l1.348,-0.891l-0,-3.187l0.34,-0l-0,2.929c0.523,-0.414 1.053,-0.869 1.588,-1.365c0.535,-0.496 1.068,-1.033 1.599,-1.611c0.196,0.578 0.44,1.01 0.733,1.295c0.293,0.285 0.642,0.427 1.049,0.427c0.218,0 0.416,-0.039 0.591,-0.117c0.176,-0.078 0.346,-0.207 0.51,-0.386l0,0.128c0,0.352 -0.094,0.684 -0.281,0.997c-0.188,0.312 -0.477,0.621 -0.867,0.925l-0,10.676c-0,0.992 -0.252,1.717 -0.756,2.174c-0.504,0.457 -1.541,0.818 -3.112,1.084c-1.492,0.258 -2.498,0.521 -3.017,0.791c-0.52,0.269 -0.779,0.623 -0.779,1.06c-0,0.227 0.086,0.416 0.257,0.569c0.172,0.152 0.391,0.228 0.657,0.228c0.328,0 0.972,-0.332 1.933,-0.996c0.961,-0.664 1.75,-0.996 2.367,-0.996c0.532,0 0.989,0.192 1.372,0.574c0.382,0.383 0.574,0.848 0.574,1.395c-0,0.508 -0.178,0.941 -0.533,1.301c-0.356,0.359 -0.788,0.539 -1.295,0.539c-0.118,-0 -0.289,-0.039 -0.516,-0.117c-0.062,-0.024 -0.105,-0.04 -0.129,-0.047Z" style="fill-rule:nonzero;"/><path d="M105.047,15.563c0.406,0.148 0.752,0.339 1.037,0.574c0.285,0.234 0.525,0.519 0.721,0.855c0.164,-0.055 0.357,-0.109 0.58,-0.164c0.222,-0.055 0.529,-0.125 0.92,-0.211l0.011,-7.055c-0.351,-0.078 -0.668,-0.224 -0.949,-0.439c-0.281,-0.215 -0.566,-0.525 -0.855,-0.932c-0.094,0.024 -0.231,0.063 -0.41,0.118c-0.469,0.132 -0.821,0.222 -1.055,0.269l-0,6.984Zm-3.434,1.958c0.063,-0.375 0.198,-0.707 0.405,-0.997c0.207,-0.289 0.505,-0.554 0.896,-0.796l0,-5.473c0,-0.399 -0.041,-0.748 -0.123,-1.049c-0.082,-0.301 -0.217,-0.607 -0.404,-0.92c0.117,0.008 0.248,0.014 0.392,0.018c0.145,0.004 0.342,0.006 0.592,0.006c1.055,-0 2.061,-0.155 3.018,-0.463c0.957,-0.309 1.838,-0.764 2.642,-1.366c0.203,0.524 0.459,0.924 0.768,1.202c0.308,0.277 0.654,0.416 1.037,0.416c0.07,-0 0.203,-0.024 0.398,-0.071c0.055,-0.015 0.098,-0.027 0.129,-0.035c-0.101,0.258 -0.226,0.481 -0.375,0.668c-0.148,0.188 -0.336,0.36 -0.562,0.516l-0,5.226c-0,0.532 0.039,1.004 0.117,1.418c0.078,0.414 0.207,0.825 0.387,1.231c-0.414,-0.063 -0.723,-0.104 -0.926,-0.123c-0.203,-0.02 -0.383,-0.03 -0.539,-0.03c-0.891,0 -1.719,0.149 -2.485,0.446c-0.765,0.297 -1.539,0.765 -2.32,1.406c-0.336,-0.414 -0.705,-0.734 -1.107,-0.961c-0.403,-0.227 -0.807,-0.34 -1.213,-0.34c-0.11,0 -0.223,0.006 -0.34,0.018c-0.117,0.012 -0.246,0.029 -0.387,0.053Z" style="fill-rule:nonzero;"/><path d="M112.535,17.695c0.086,-0.343 0.24,-0.638 0.463,-0.884c0.223,-0.247 0.518,-0.448 0.885,-0.604l-0,-10.828c-0,-0.625 -0.061,-1.088 -0.182,-1.389c-0.121,-0.301 -0.334,-0.588 -0.638,-0.861c0.648,-0.07 1.259,-0.25 1.833,-0.539c0.575,-0.289 1.17,-0.727 1.788,-1.313l0.175,0.164c-0.32,0.36 -0.545,0.77 -0.673,1.231c-0.129,0.461 -0.194,1.285 -0.194,2.473l0,10.558c0.344,0.125 0.635,0.281 0.873,0.469c0.239,0.187 0.451,0.422 0.639,0.703l0.598,-0.434l0.199,0.317c-0.617,0.445 -1.145,0.863 -1.582,1.254c-0.438,0.39 -0.727,0.699 -0.867,0.925c-0.204,-0.406 -0.514,-0.738 -0.932,-0.996c-0.418,-0.257 -0.854,-0.386 -1.307,-0.386c-0.148,-0 -0.316,0.011 -0.504,0.035c-0.187,0.023 -0.379,0.058 -0.574,0.105Z" style="fill-rule:nonzero;"/><path d="M121.969,9.41l3.574,-2.683c0.211,0.679 0.465,1.289 0.762,1.828c0.297,0.539 0.613,0.961 0.949,1.265l-2.473,1.875c0.289,0.235 0.53,0.528 0.721,0.879c0.191,0.352 0.365,0.86 0.521,1.524c0.219,0.875 0.477,1.529 0.774,1.963c0.297,0.433 0.633,0.65 1.008,0.65c0.078,-0 0.16,-0.018 0.246,-0.053c0.086,-0.035 0.176,-0.088 0.269,-0.158l0.2,0.258c-0.5,0.359 -0.94,0.728 -1.319,1.107c-0.379,0.379 -0.666,0.737 -0.861,1.073c-0.516,-0.149 -0.922,-0.459 -1.219,-0.932c-0.297,-0.473 -0.547,-1.217 -0.75,-2.233c-0.156,-0.781 -0.326,-1.386 -0.51,-1.816c-0.183,-0.43 -0.412,-0.762 -0.685,-0.996l-1.207,0.984l-0,2.145c0.297,0.125 0.562,0.271 0.797,0.439c0.234,0.168 0.449,0.366 0.644,0.592c-0.367,0.18 -0.724,0.399 -1.072,0.656c-0.348,0.258 -0.725,0.582 -1.131,0.973c-0.445,-0.477 -0.838,-0.805 -1.178,-0.984c-0.34,-0.18 -0.709,-0.27 -1.107,-0.27c-0.086,0 -0.152,0.002 -0.199,0.006c-0.047,0.004 -0.09,0.01 -0.129,0.018c0.078,-0.313 0.222,-0.588 0.433,-0.827c0.211,-0.238 0.489,-0.439 0.832,-0.603l0,-11.039c0,-0.571 -0.054,-1.006 -0.164,-1.307c-0.109,-0.301 -0.293,-0.588 -0.55,-0.861c0.046,0.008 0.099,0.013 0.158,0.017c0.058,0.004 0.123,0.006 0.193,0.006c0.297,0 0.77,-0.146 1.418,-0.439c0.648,-0.293 1.234,-0.658 1.758,-1.096c-0.235,0.5 -0.41,0.996 -0.527,1.488c-0.118,0.493 -0.176,0.981 -0.176,1.465l-0,5.086Zm-0,4.031l3.386,-2.636c-0.25,-0.391 -0.484,-0.793 -0.703,-1.207c-0.218,-0.414 -0.418,-0.836 -0.597,-1.266l-2.086,1.512l-0,3.597Z" style="fill-rule:nonzero;"/><path d="M140.238,15.27c0.188,-0.196 0.326,-0.454 0.416,-0.774c0.09,-0.32 0.135,-0.711 0.135,-1.172l0,-6.14l-0.844,0.457l0,-0.481c0.5,-0.25 1.008,-0.537 1.524,-0.861c0.515,-0.324 1.047,-0.686 1.594,-1.084l-0,6.281c-0,0.938 -0.204,1.68 -0.61,2.227c-0.406,0.547 -1.144,1.062 -2.215,1.547Zm-5.308,-10.418c0.156,-1.227 0.547,-2.114 1.172,-2.661c0.625,-0.546 1.578,-0.82 2.859,-0.82c0.836,0 2.012,0.104 3.527,0.311c1.516,0.207 2.614,0.31 3.293,0.31c0.563,0 1.032,-0.029 1.407,-0.088c0.375,-0.058 0.714,-0.154 1.019,-0.287c-0.242,0.555 -0.564,1.037 -0.967,1.447c-0.402,0.411 -0.881,0.733 -1.435,0.967l-0,10.664c0.242,-0.234 0.492,-0.5 0.75,-0.797c0.258,-0.296 0.511,-0.617 0.761,-0.96c-0.343,1.835 -1.086,3.291 -2.226,4.365c-1.141,1.074 -2.504,1.611 -4.09,1.611c-1.75,0 -3.187,-0.592 -4.312,-1.775c-1.125,-1.184 -1.688,-2.709 -1.688,-4.576c0,-1.602 0.332,-3.069 0.996,-4.401c0.664,-1.332 1.606,-2.428 2.824,-3.287c-0.632,0.992 -1.088,1.938 -1.365,2.836c-0.277,0.898 -0.416,1.84 -0.416,2.824c0,1.742 0.402,3.139 1.207,4.19c0.805,1.05 1.859,1.576 3.164,1.576c0.633,-0 1.293,-0.115 1.981,-0.346c0.687,-0.23 1.371,-0.564 2.05,-1.002l0,-10.816c-0.328,0.086 -0.628,0.15 -0.902,0.193c-0.273,0.043 -0.523,0.065 -0.75,0.065c-0.391,-0 -1.318,-0.084 -2.783,-0.252c-1.465,-0.168 -2.721,-0.252 -3.768,-0.252c-0.609,-0 -1.097,0.076 -1.465,0.228c-0.367,0.152 -0.648,0.397 -0.843,0.733Z" style="fill-rule:nonzero;"/><path d="M149.309,4.664l-0.481,0.305l-0.164,-0.281c0.719,-0.516 1.207,-0.885 1.465,-1.108c0.258,-0.223 0.449,-0.424 0.574,-0.603c0.164,0.398 0.354,0.683 0.568,0.855c0.215,0.172 0.491,0.258 0.827,0.258l0.281,-0.024c-0.125,0.414 -0.35,0.748 -0.674,1.002c-0.324,0.254 -0.682,0.381 -1.072,0.381c-0.219,0 -0.442,-0.066 -0.668,-0.199c-0.227,-0.133 -0.445,-0.328 -0.656,-0.586Zm2.179,13.863c-0.703,-0.187 -1.197,-0.566 -1.482,-1.136c-0.285,-0.571 -0.428,-1.559 -0.428,-2.965l0,-4.84c-0.195,-0.102 -0.367,-0.213 -0.516,-0.334c-0.148,-0.121 -0.289,-0.268 -0.421,-0.44l-0.598,0.364l-0.176,-0.27c0.516,-0.32 1.016,-0.67 1.5,-1.049c0.485,-0.378 0.938,-0.779 1.36,-1.201c0.171,0.383 0.388,0.678 0.65,0.885c0.262,0.207 0.549,0.311 0.861,0.311c0.055,-0 0.127,-0.016 0.217,-0.047c0.09,-0.032 0.24,-0.094 0.451,-0.188c-0.015,0.383 -0.123,0.717 -0.322,1.002c-0.199,0.285 -0.498,0.533 -0.897,0.744l0,4.969c0,0.805 0.125,1.348 0.375,1.629c0.25,0.281 0.7,0.434 1.348,0.457c-0.437,0.367 -0.818,0.728 -1.142,1.084c-0.325,0.355 -0.584,0.697 -0.78,1.025Z" style="fill-rule:nonzero;"/><path d="M156.867,18.727c-0.312,-0.508 -0.681,-0.885 -1.107,-1.131c-0.426,-0.246 -0.967,-0.397 -1.623,-0.451c0.093,-0.219 0.246,-0.415 0.457,-0.586c0.211,-0.172 0.531,-0.364 0.961,-0.575l-0,-5.414c-0,-0.601 -0.11,-1.009 -0.328,-1.224c-0.219,-0.215 -0.657,-0.354 -1.313,-0.416c0.531,-0.321 0.992,-0.672 1.383,-1.055c0.39,-0.383 0.723,-0.805 0.996,-1.266c0.484,0.243 0.834,0.614 1.049,1.114c0.215,0.5 0.322,1.222 0.322,2.168l3.762,-3.282c0.414,0.258 0.722,0.629 0.926,1.114c0.203,0.484 0.304,1.086 0.304,1.804l0,0.364l3.739,-3.282c0.109,0.477 0.298,0.848 0.568,1.114c0.269,0.265 0.599,0.398 0.99,0.398c0.102,0 0.197,-0.008 0.287,-0.023c0.09,-0.016 0.178,-0.039 0.264,-0.071c-0.133,0.328 -0.283,0.604 -0.451,0.827c-0.168,0.222 -0.369,0.416 -0.604,0.58l0,5.449c0,0.523 0.149,0.92 0.446,1.189c0.296,0.27 0.73,0.412 1.3,0.428c-0.422,0.352 -0.795,0.711 -1.119,1.078c-0.324,0.367 -0.603,0.75 -0.838,1.149c-0.718,-0.196 -1.215,-0.524 -1.488,-0.985c-0.273,-0.461 -0.41,-1.422 -0.41,-2.883l-0,-5.039c-0.211,-0.101 -0.41,-0.216 -0.598,-0.345c-0.187,-0.129 -0.363,-0.28 -0.527,-0.452l-1.559,1.278l0,5.66c0.289,0.101 0.551,0.24 0.785,0.416c0.235,0.176 0.469,0.416 0.704,0.721c-0.422,0.203 -0.819,0.451 -1.19,0.744c-0.371,0.293 -0.721,0.627 -1.049,1.002c-0.226,-0.508 -0.554,-0.905 -0.984,-1.19c-0.43,-0.285 -0.973,-0.455 -1.629,-0.509c0.125,-0.211 0.285,-0.407 0.48,-0.586c0.196,-0.18 0.454,-0.364 0.774,-0.551l-0,-5.367c-0,-0.5 -0.072,-0.905 -0.217,-1.213c-0.144,-0.309 -0.369,-0.553 -0.674,-0.733l-1.992,1.606l0,5.636c0.156,0.071 0.324,0.157 0.504,0.258c0.18,0.102 0.394,0.235 0.644,0.399c-0.359,0.273 -0.708,0.597 -1.048,0.972c-0.34,0.375 -0.639,0.762 -0.897,1.161Z" style="fill-rule:nonzero;"/><path d="M173.977,8.074l-0.715,0.188l-0,5.402l2.859,-1.922l-2.144,-3.668Zm-4.055,9.645c-0,-0.43 0.103,-0.797 0.31,-1.102c0.207,-0.305 0.514,-0.539 0.92,-0.703l0,-5.707c0,-0.437 -0.054,-0.816 -0.164,-1.137c-0.109,-0.32 -0.281,-0.613 -0.515,-0.879l0.82,0c0.875,0 1.748,-0.158 2.619,-0.474c0.871,-0.317 1.557,-0.721 2.057,-1.213c0.234,0.766 0.554,1.504 0.961,2.215c0.406,0.711 0.879,1.359 1.418,1.945l-5.086,3.457l-0,1.57c0.633,0.079 1.209,0.207 1.728,0.387c0.52,0.18 0.967,0.406 1.342,0.68l0.668,-0.528l0.223,0.282l-2.614,2.308c-0.492,-0.429 -1.037,-0.761 -1.634,-0.996c-0.598,-0.234 -1.205,-0.351 -1.823,-0.351c-0.218,-0 -0.427,0.019 -0.627,0.058c-0.199,0.039 -0.4,0.102 -0.603,0.188Z" style="fill-rule:nonzero;"/><path d="M183,12.586c0.414,-0.461 0.984,-1.066 1.711,-1.816c1.32,-1.36 2.047,-2.293 2.18,-2.801c-0.313,0.351 -0.627,0.615 -0.944,0.791c-0.316,0.176 -0.627,0.263 -0.931,0.263c-0.313,0 -0.604,-0.093 -0.873,-0.281c-0.27,-0.187 -0.498,-0.461 -0.686,-0.82l-1.031,0.269l-0,4.395l0.574,-0Zm-3.07,4.008c0.336,-0.25 0.709,-0.449 1.119,-0.598c0.41,-0.148 0.779,-0.223 1.107,-0.223c0.375,0 0.727,0.094 1.055,0.282c0.328,0.187 0.664,0.484 1.008,0.89l0.984,-0.211l0,-4.441l-1.172,-0c-0.562,0.633 -1.334,1.412 -2.314,2.338c-0.981,0.926 -1.576,1.58 -1.787,1.963Zm-0.68,2.062l-0.281,0l0.023,-0.316c0,-0.555 0.221,-1.18 0.662,-1.875c0.442,-0.695 1.237,-1.629 2.385,-2.801l-2.18,0c0.164,-0.258 0.282,-0.512 0.352,-0.762c0.07,-0.25 0.105,-0.558 0.105,-0.925l0,-2.872c0,-0.21 -0.041,-0.414 -0.123,-0.609c-0.082,-0.195 -0.201,-0.379 -0.357,-0.551c0.078,0.008 0.252,0.022 0.521,0.041c0.27,0.02 0.487,0.03 0.651,0.03c0.804,-0 1.554,-0.12 2.25,-0.358c0.695,-0.238 1.344,-0.596 1.945,-1.072c0.219,0.273 0.438,0.476 0.656,0.609c0.219,0.133 0.442,0.2 0.668,0.2c0.235,-0 0.418,-0.069 0.551,-0.206c0.133,-0.136 0.215,-0.337 0.246,-0.603l0.375,-0c-0.094,0.672 -0.306,1.32 -0.638,1.945c-0.332,0.625 -0.999,1.52 -1.999,2.684l2.661,-0c-0.133,0.117 -0.233,0.305 -0.299,0.562c-0.067,0.258 -0.1,0.598 -0.1,1.02l0,2.73c0,0.461 0.033,0.825 0.1,1.09c0.066,0.266 0.178,0.528 0.334,0.785c-0.305,-0.093 -0.608,-0.164 -0.908,-0.211c-0.301,-0.046 -0.608,-0.07 -0.92,-0.07c-0.743,0 -1.409,0.129 -1.998,0.387c-0.59,0.258 -1.131,0.656 -1.623,1.195c-0.407,-0.484 -0.75,-0.822 -1.032,-1.014c-0.281,-0.191 -0.57,-0.287 -0.867,-0.287c-0.32,0 -0.584,0.112 -0.791,0.334c-0.207,0.223 -0.33,0.53 -0.369,0.92Z" style="fill-rule:nonzero;"/></svg>