<?xml version="1.0" encoding="UTF-8" standalone="no"?>
<!DOCTYPE svg PUBLIC "-//W3C//DTD SVG 1.1//EN" "http://www.w3.org/Graphics/SVG/1.1/DTD/svg11.dtd">
<svg width="100%" height="100%" viewBox="0 0 512 512" version="1.1" xmlns="http://www.w3.org/2000/svg" xmlns:xlink="http://www.w3.org/1999/xlink" xml:space="preserve" xmlns:serif="http://www.serif.com/" style="fill-rule:evenodd;clip-rule:evenodd;stroke-linejoin:round;stroke-miterlimit:2;">
    <g transform="matrix(1.57296,0,0,0.971236,-198.399,187.462)">
        <g transform="matrix(300,0,0,300,125.873,54.0935)">
            <path d="M0.501,-0L0.077,-0L0.077,-0.714L0.501,-0.714L0.501,-0.559L0.27,-0.559L0.27,-0.447L0.484,-0.447L0.484,-0.292L0.27,-0.292L0.27,-0.157L0.501,-0.157L0.501,-0Z" style="fill:rgb(139,92,246);fill-rule:nonzero;"/>
        </g>
    </g>
    <g transform="matrix(1.30956,0,0,0.971236,72.8532,187.462)">
        <g transform="matrix(300,0,0,300,125.873,54.0935)">
            <path d="M0.077,-0.714L0.326,-0.714C0.423,-0.714 0.495,-0.699 0.542,-0.671C0.589,-0.642 0.613,-0.597 0.613,-0.536C0.613,-0.496 0.603,-0.462 0.582,-0.434C0.562,-0.405 0.535,-0.387 0.501,-0.379L0.501,-0.374C0.545,-0.362 0.577,-0.343 0.597,-0.315C0.617,-0.288 0.627,-0.253 0.627,-0.209C0.627,-0.144 0.603,-0.093 0.554,-0.056C0.505,-0.019 0.439,-0 0.355,-0L0.077,-0L0.077,-0.714ZM0.27,-0.44L0.328,-0.44C0.356,-0.44 0.377,-0.446 0.392,-0.457C0.407,-0.468 0.415,-0.485 0.415,-0.508C0.415,-0.548 0.385,-0.568 0.324,-0.568L0.27,-0.568L0.27,-0.44ZM0.27,-0.299L0.27,-0.149L0.338,-0.149C0.398,-0.149 0.428,-0.174 0.428,-0.225C0.428,-0.249 0.42,-0.267 0.404,-0.28C0.388,-0.292 0.365,-0.299 0.334,-0.299L0.27,-0.299Z" style="fill:rgb(139,92,246);fill-rule:nonzero;"/>
        </g>
    </g>
    <g transform="matrix(1.58932,0,0,0.981334,-200.458,426.916)">
        <g transform="matrix(296.913,0,0,296.913,125.873,54.0935)">
            <path d="M0.501,-0L0.077,-0L0.077,-0.714L0.501,-0.714L0.501,-0.559L0.27,-0.559L0.27,-0.447L0.484,-0.447L0.484,-0.292L0.27,-0.292L0.27,-0.157L0.501,-0.157L0.501,-0Z" style="fill:rgb(245,158,11);fill-rule:nonzero;"/>
        </g>
    </g>
    <g transform="matrix(1.32317,0,0,0.981334,71.1392,426.916)">
        <g transform="matrix(296.913,0,0,296.913,125.873,54.0935)">
            <path d="M0.077,-0.714L0.326,-0.714C0.423,-0.714 0.495,-0.699 0.542,-0.671C0.589,-0.642 0.613,-0.597 0.613,-0.536C0.613,-0.496 0.603,-0.462 0.582,-0.434C0.562,-0.405 0.535,-0.387 0.501,-0.379L0.501,-0.374C0.545,-0.362 0.577,-0.343 0.597,-0.315C0.617,-0.288 0.627,-0.253 0.627,-0.209C0.627,-0.144 0.603,-0.093 0.554,-0.056C0.505,-0.019 0.439,-0 0.355,-0L0.077,-0L0.077,-0.714ZM0.27,-0.44L0.328,-0.44C0.356,-0.44 0.377,-0.446 0.392,-0.457C0.407,-0.468 0.415,-0.485 0.415,-0.508C0.415,-0.548 0.385,-0.568 0.324,-0.568L0.27,-0.568L0.27,-0.44ZM0.27,-0.299L0.27,-0.149L0.338,-0.149C0.398,-0.149 0.428,-0.174 0.428,-0.225C0.428,-0.249 0.42,-0.267 0.404,-0.28C0.388,-0.292 0.365,-0.299 0.334,-0.299L0.27,-0.299Z" style="fill:rgb(245,158,11);fill-rule:nonzero;"/>
        </g>
    </g>
</svg>
